<?xml version="1.0" standalone="no"?>
<!DOCTYPE svg PUBLIC "-//W3C//DTD SVG 20010904//EN"
 "http://www.w3.org/TR/2001/REC-SVG-20010904/DTD/svg10.dtd">
<svg version="1.0" xmlns="http://www.w3.org/2000/svg"
 width="432.000000pt" height="432.000000pt" viewBox="0 0 432.000000 432.000000"
 preserveAspectRatio="xMidYMid meet">

<g transform="translate(0.000000,432.000000) scale(0.100000,-0.100000)"
fill="#000000" stroke="none">
<path d="M2063 3048 c-41 -67 -113 -207 -113 -223 0 -27 161 -215 185 -215 17
0 165 186 165 208 0 9 -34 74 -75 145 -70 117 -78 127 -105 127 -24 0 -35 -8
-57 -42z"/>
<path d="M2331 3082 c-43 -9 -60 -34 -40 -58 8 -9 83 -78 167 -152 163 -143
287 -274 414 -439 122 -158 149 -137 82 64 -44 132 -66 177 -150 299 -35 53
-64 97 -62 99 2 1 41 10 88 20 131 27 158 46 119 81 -34 31 -303 84 -454 89
-71 2 -145 1 -164 -3z"/>
<path d="M1674 2866 c-36 -36 -72 -82 -80 -101 -17 -41 -15 -45 57 -144 53
-73 69 -127 69 -229 l0 -54 80 -83 c74 -76 81 -86 87 -132 l5 -50 -38 -7 c-73
-13 -95 -26 -92 -55 2 -21 16 -33 73 -61 48 -24 93 -59 147 -112 43 -43 82
-78 87 -78 17 0 25 23 32 87 5 54 12 70 50 118 24 31 53 67 64 80 l19 25 -61
63 c-50 51 -62 70 -68 107 -6 36 -19 56 -68 107 l-60 63 62 70 c35 39 61 74
59 80 -5 13 -200 230 -208 230 -3 0 -21 -16 -40 -35 -59 -61 -71 -49 -79 79
-4 62 -10 91 -19 94 -8 2 -43 -25 -78 -62z"/>
<path d="M2284 2703 c-69 -79 -156 -176 -165 -183 -24 -19 -79 -95 -79 -110 0
-9 18 -38 40 -63 31 -35 40 -53 40 -82 0 -33 9 -47 77 -116 42 -44 81 -79 87
-79 6 1 49 36 95 79 l84 79 -45 43 c-37 36 -47 53 -52 92 -4 27 -5 52 -2 55 4
3 25 -12 49 -34 111 -103 167 -159 167 -169 0 -5 -108 -116 -241 -245 l-241
-235 4 -235 c3 -265 10 -295 62 -295 35 0 41 11 55 102 11 72 55 212 84 269 8
16 38 51 67 78 44 42 56 47 83 43 237 -39 229 -41 221 72 -3 42 -10 91 -14
109 -8 32 -5 38 69 120 43 48 91 98 106 112 15 14 45 47 68 73 l40 49 -69 65
c-330 312 -507 473 -518 473 -7 0 -40 -30 -72 -67z"/>
<path d="M1399 2614 c-10 -12 -10 -22 -1 -48 16 -45 16 -46 -17 -46 -29 0 -61
-22 -61 -41 0 -6 13 -24 29 -40 22 -22 39 -29 68 -29 35 0 39 -4 54 -39 19
-45 59 -75 88 -66 28 8 33 31 16 71 l-14 34 30 0 c37 0 69 16 69 35 0 32 -45
67 -92 72 -43 5 -48 9 -58 39 -20 60 -82 92 -111 58z"/>
<path d="M1333 2324 c-9 -23 41 -172 90 -269 22 -44 66 -122 98 -173 33 -51
59 -94 59 -96 0 -2 -44 -14 -98 -26 -114 -26 -142 -42 -126 -68 20 -32 414
-102 572 -102 64 0 82 11 82 51 0 21 -26 49 -142 150 -251 218 -339 314 -470
508 -29 43 -54 52 -65 25z"/>
</g>
</svg>
